<mxfile host="Electron" modified="2020-08-04T02:24:03.376Z" agent="5.0 (X11; Linux x86_64) AppleWebKit/537.36 (KHTML, like Gecko) draw.io/13.3.9 Chrome/83.0.4103.119 Electron/9.0.5 Safari/537.36" etag="aSxi6Hg3Ir8ulYwGIe8F" compressed="false" version="13.3.9" type="device">
  <diagram id="YyMA0VNKtZx1mZ1GuYOf" name="Page-1">
    <mxGraphModel dx="692" dy="424" grid="1" gridSize="10" guides="0" tooltips="1" connect="1" arrows="1" fold="1" page="1" pageScale="1" pageWidth="850" pageHeight="1100" math="0" shadow="0">
      <root>
        <mxCell id="0" />
        <mxCell id="1" parent="0" />
        <mxCell id="AaH8zhyf4bYJ4Zjeb68T-17" style="edgeStyle=orthogonalEdgeStyle;rounded=0;orthogonalLoop=1;jettySize=auto;html=1;" edge="1" parent="1" source="AaH8zhyf4bYJ4Zjeb68T-1" target="AaH8zhyf4bYJ4Zjeb68T-10">
          <mxGeometry relative="1" as="geometry">
            <Array as="points">
              <mxPoint x="130" y="140" />
              <mxPoint x="70" y="140" />
              <mxPoint x="70" y="185" />
            </Array>
          </mxGeometry>
        </mxCell>
        <mxCell id="AaH8zhyf4bYJ4Zjeb68T-1" value="v_l1_bits" style="rounded=0;whiteSpace=wrap;html=1;" vertex="1" parent="1">
          <mxGeometry x="80" y="80" width="100" height="20" as="geometry" />
        </mxCell>
        <mxCell id="AaH8zhyf4bYJ4Zjeb68T-29" style="edgeStyle=orthogonalEdgeStyle;rounded=0;orthogonalLoop=1;jettySize=auto;html=1;" edge="1" parent="1" source="AaH8zhyf4bYJ4Zjeb68T-2" target="AaH8zhyf4bYJ4Zjeb68T-21">
          <mxGeometry relative="1" as="geometry">
            <Array as="points">
              <mxPoint x="230" y="140" />
              <mxPoint x="280" y="140" />
              <mxPoint x="280" y="190" />
            </Array>
          </mxGeometry>
        </mxCell>
        <mxCell id="AaH8zhyf4bYJ4Zjeb68T-2" value="&lt;font style=&quot;font-size: 9px&quot;&gt;v_l1_shift = &lt;font color=&quot;#666600&quot;&gt;V_L2_BITS&lt;/font&gt;&lt;/font&gt;" style="rounded=0;whiteSpace=wrap;html=1;" vertex="1" parent="1">
          <mxGeometry x="180" y="80" width="100" height="20" as="geometry" />
        </mxCell>
        <mxCell id="AaH8zhyf4bYJ4Zjeb68T-3" value="&lt;font color=&quot;#666600&quot;&gt;TARGE_PAGE_BITS&lt;/font&gt;" style="rounded=0;whiteSpace=wrap;html=1;" vertex="1" parent="1">
          <mxGeometry x="280" y="80" width="120" height="20" as="geometry" />
        </mxCell>
        <mxCell id="AaH8zhyf4bYJ4Zjeb68T-4" value="12" style="text;html=1;align=center;verticalAlign=middle;resizable=0;points=[];autosize=1;" vertex="1" parent="1">
          <mxGeometry x="330" y="100" width="30" height="20" as="geometry" />
        </mxCell>
        <mxCell id="AaH8zhyf4bYJ4Zjeb68T-6" value="10" style="text;html=1;align=center;verticalAlign=middle;resizable=0;points=[];autosize=1;" vertex="1" parent="1">
          <mxGeometry x="200" y="100" width="30" height="20" as="geometry" />
        </mxCell>
        <mxCell id="AaH8zhyf4bYJ4Zjeb68T-7" value="10" style="text;html=1;align=center;verticalAlign=middle;resizable=0;points=[];autosize=1;" vertex="1" parent="1">
          <mxGeometry x="100" y="100" width="30" height="20" as="geometry" />
        </mxCell>
        <mxCell id="AaH8zhyf4bYJ4Zjeb68T-8" value="" style="rounded=0;whiteSpace=wrap;html=1;" vertex="1" parent="1">
          <mxGeometry x="80" y="160" width="160" height="10" as="geometry" />
        </mxCell>
        <mxCell id="AaH8zhyf4bYJ4Zjeb68T-9" value="" style="rounded=0;whiteSpace=wrap;html=1;" vertex="1" parent="1">
          <mxGeometry x="80" y="170" width="160" height="10" as="geometry" />
        </mxCell>
        <mxCell id="AaH8zhyf4bYJ4Zjeb68T-27" style="edgeStyle=orthogonalEdgeStyle;rounded=0;orthogonalLoop=1;jettySize=auto;html=1;entryX=0.1;entryY=0.5;entryDx=0;entryDy=0;entryPerimeter=0;" edge="1" parent="1" source="AaH8zhyf4bYJ4Zjeb68T-10" target="AaH8zhyf4bYJ4Zjeb68T-26">
          <mxGeometry relative="1" as="geometry" />
        </mxCell>
        <mxCell id="AaH8zhyf4bYJ4Zjeb68T-10" value="" style="rounded=0;whiteSpace=wrap;html=1;" vertex="1" parent="1">
          <mxGeometry x="80" y="180" width="160" height="10" as="geometry" />
        </mxCell>
        <mxCell id="AaH8zhyf4bYJ4Zjeb68T-11" value="" style="rounded=0;whiteSpace=wrap;html=1;" vertex="1" parent="1">
          <mxGeometry x="80" y="190" width="160" height="10" as="geometry" />
        </mxCell>
        <mxCell id="AaH8zhyf4bYJ4Zjeb68T-12" value="" style="rounded=0;whiteSpace=wrap;html=1;" vertex="1" parent="1">
          <mxGeometry x="80" y="200" width="160" height="10" as="geometry" />
        </mxCell>
        <mxCell id="AaH8zhyf4bYJ4Zjeb68T-13" value="" style="rounded=0;whiteSpace=wrap;html=1;" vertex="1" parent="1">
          <mxGeometry x="80" y="210" width="160" height="10" as="geometry" />
        </mxCell>
        <mxCell id="AaH8zhyf4bYJ4Zjeb68T-14" value="" style="rounded=0;whiteSpace=wrap;html=1;" vertex="1" parent="1">
          <mxGeometry x="80" y="220" width="160" height="10" as="geometry" />
        </mxCell>
        <mxCell id="AaH8zhyf4bYJ4Zjeb68T-15" value="" style="rounded=0;whiteSpace=wrap;html=1;" vertex="1" parent="1">
          <mxGeometry x="80" y="230" width="160" height="10" as="geometry" />
        </mxCell>
        <mxCell id="AaH8zhyf4bYJ4Zjeb68T-16" value="l1_map" style="text;html=1;align=center;verticalAlign=middle;resizable=0;points=[];autosize=1;" vertex="1" parent="1">
          <mxGeometry x="80" y="140" width="50" height="20" as="geometry" />
        </mxCell>
        <mxCell id="AaH8zhyf4bYJ4Zjeb68T-18" value="32-bit ptr" style="text;html=1;align=center;verticalAlign=middle;resizable=0;points=[];autosize=1;" vertex="1" parent="1">
          <mxGeometry x="180" y="139" width="60" height="20" as="geometry" />
        </mxCell>
        <mxCell id="AaH8zhyf4bYJ4Zjeb68T-19" value="level=0" style="text;html=1;align=left;verticalAlign=middle;resizable=0;points=[];autosize=1;" vertex="1" parent="1">
          <mxGeometry x="80" y="40" width="50" height="20" as="geometry" />
        </mxCell>
        <mxCell id="AaH8zhyf4bYJ4Zjeb68T-20" value="" style="rounded=0;whiteSpace=wrap;html=1;" vertex="1" parent="1">
          <mxGeometry x="300" y="160" width="60" height="20" as="geometry" />
        </mxCell>
        <mxCell id="AaH8zhyf4bYJ4Zjeb68T-21" value="" style="rounded=0;whiteSpace=wrap;html=1;" vertex="1" parent="1">
          <mxGeometry x="300" y="180" width="60" height="20" as="geometry" />
        </mxCell>
        <mxCell id="AaH8zhyf4bYJ4Zjeb68T-22" value="" style="rounded=0;whiteSpace=wrap;html=1;" vertex="1" parent="1">
          <mxGeometry x="300" y="200" width="60" height="20" as="geometry" />
        </mxCell>
        <mxCell id="AaH8zhyf4bYJ4Zjeb68T-24" value="" style="rounded=0;whiteSpace=wrap;html=1;" vertex="1" parent="1">
          <mxGeometry x="300" y="220" width="60" height="20" as="geometry" />
        </mxCell>
        <mxCell id="AaH8zhyf4bYJ4Zjeb68T-26" value="" style="shape=curlyBracket;whiteSpace=wrap;html=1;rounded=1;" vertex="1" parent="1">
          <mxGeometry x="290" y="160" width="10" height="80" as="geometry" />
        </mxCell>
        <mxCell id="AaH8zhyf4bYJ4Zjeb68T-28" value="PageDesc[]" style="text;html=1;align=center;verticalAlign=middle;resizable=0;points=[];autosize=1;" vertex="1" parent="1">
          <mxGeometry x="290" y="140" width="80" height="20" as="geometry" />
        </mxCell>
        <mxCell id="AaH8zhyf4bYJ4Zjeb68T-30" value="Linux内核有4级页表，在x86-32里中间2级页表长度为1（地址索引为0bit）" style="text;html=1;align=left;verticalAlign=middle;resizable=0;points=[];autosize=1;" vertex="1" parent="1">
          <mxGeometry x="80" y="60" width="410" height="20" as="geometry" />
        </mxCell>
      </root>
    </mxGraphModel>
  </diagram>
</mxfile>
